<svg enable-background="new 0 0 179 55" viewBox="0 0 179 55" xmlns="http://www.w3.org/2000/svg" xmlns:xlink="http://www.w3.org/1999/xlink"><linearGradient id="a" gradientTransform="matrix(1 0 0 -1 0 55)" gradientUnits="userSpaceOnUse" x1="19.7184" x2="11.6333" y1="33.9828" y2="3.8089"><stop offset="0" stop-color="#0c7668"/><stop offset="1" stop-color="#1e3158"/></linearGradient><linearGradient id="b"><stop offset="0" stop-color="#0191ab"/><stop offset="1" stop-color="#1e3158"/></linearGradient><linearGradient id="c" gradientTransform="matrix(1 0 0 -1 0 55)" gradientUnits="userSpaceOnUse" x1="36.6901" x2="25.5524" xlink:href="#b" y1="10.8948" y2="55.5656"/><linearGradient id="d" gradientTransform="matrix(1 0 0 -1 0 55)" gradientUnits="userSpaceOnUse" x1="62.0635" x2="75.5966" xlink:href="#b" y1="37.8823" y2="14.4422"/><linearGradient id="e" gradientTransform="matrix(1 0 0 -1 0 55)" gradientUnits="userSpaceOnUse" x1="96.001" x2="107.9493" xlink:href="#b" y1="36.5183" y2="15.8232"/><linearGradient id="f" gradientTransform="matrix(1 0 0 -1 0 55)" gradientUnits="userSpaceOnUse" x1="77.4141" x2="93.0288" xlink:href="#b" y1="42.8399" y2="15.7944"/><path d="m14.6 0-14.6 55h21.3l14.8-55z" fill="url(#a)"/><path d="m14.6 0 11.7 42.8-20.4-9.9h16.3l-8.4-30z" fill="#262f41"/><path d="m14.6 0h21.5l14.4 55-24.2-12.2z" fill="url(#c)"/><path d="m64.2 27.8c0-2.9 2-5.4 4.8-6.2h-.1c-3.4 0-6.2 2.8-6.2 6.2s2.8 6.2 6.2 6.2h.1c-2.7-.8-4.8-3.3-4.8-6.2z" fill="#1e3158"/><path d="m69 15.2c-.1 0-.1 0-.2 0-7 0-12.8 5.7-12.8 12.8s5.7 12.8 12.8 12.8h.2 6.3v-25.6zm0 18.7c-3.5 0-6.3-2.8-6.3-6.2s2.8-6.2 6.2-6.2h.1z" fill="url(#d)"/><path d="m100.6 27.8c0-2.9 2-5.4 4.7-6.2v-.1s0 0-.1 0c-3.4 0-6.2 2.8-6.2 6.2s2.8 6.2 6.2 6.2h.1c-2.7-.7-4.7-3.2-4.7-6.1z" fill="#1e3158"/><path d="m105.2 21.6s.1 0 0 0l.1-6.4c-.1 0-.1 0-.2 0-7 0-12.8 5.7-12.8 12.8s5.7 12.8 12.8 12.8h.2v-6.8h-.1c-3.4 0-6.2-2.8-6.2-6.2 0-3.5 2.8-6.2 6.2-6.2z" fill="url(#e)"/><path d="m85.6 27.8v-6.4h-1.6v6.4c0 3.4 2.8 6.2 6.2 6.2h.1v-.1c-2.7-.7-4.7-3.2-4.7-6.1z" fill="#1e3158"/><path d="m90.3 33.9c-3.4 0-6.1-2.7-6.2-6v-6.4h6.1v-6.3h.1-.1-6.1v-6.9l-6.7 6.9v12.8c0 7 5.7 12.8 12.8 12.8h.2z" fill="url(#f)"/><g fill="#0b7a99"><path d="m118.3 24.4v6.7h-1.3v-6.7z"/><path d="m124.1 26.3c.4.4.6.9.6 1.7v3h-1.3v-2.9c0-.5-.1-.7-.3-.9s-.5-.4-.8-.4c-.4 0-.7.1-.8.4-.2.2-.3.6-.3.9v2.9h-1.3v-5.3h1.3v.7c.2-.2.4-.4.7-.6.3-.1.6-.2.9-.2.3.1.9.3 1.3.7z"/><path d="m127.5 26.9v2.6c0 .2 0 .3.1.4s.2.1.5.1h.7v1.1h-.8c-1.1 0-1.7-.6-1.7-1.7v-2.5h-.7v-1.1h.7v-1.3h1.4v1.3h1.2v1.1z"/><path d="m134.5 28.8h-3.9c0 .4.2.7.4.9.3.2.6.4.8.4.5 0 .8-.2 1-.7h1.5c-.2.5-.5.9-.8 1.3-.5.4-.9.5-1.6.5-.5 0-.9-.1-1.4-.4-.4-.2-.7-.6-.9-.9-.2-.4-.4-.9-.4-1.4 0-.6.1-1 .4-1.5.2-.4.6-.7.9-.9s.8-.4 1.4-.4c.5 0 .9.1 1.4.3.4.2.7.6.9.9.2.4.4.8.4 1.4 0 .2 0 .4-.1.5zm-1.3-.7c0-.4-.1-.7-.4-.8-.3-.2-.6-.3-.9-.3-.4 0-.7.1-.8.3-.2.2-.4.5-.4.8z"/><path d="m137.6 26c.3-.2.6-.3.9-.3v1.4h-.4c-.5 0-.7.1-.9.3s-.3.6-.3 1v2.6h-1.3v-5.3h1.3v.9c.2-.1.4-.4.7-.6z"/><path d="m143.9 26.3c.4.4.6.9.6 1.7v3h-1.3v-2.9c0-.5-.1-.7-.3-.9s-.5-.4-.8-.4c-.4 0-.7.1-.8.4-.2.2-.3.6-.3.9v2.9h-1.3v-5.3h1.3v.7c.2-.2.4-.4.7-.6.3-.1.6-.2.9-.2.4.1.9.3 1.3.7z"/><path d="m145.8 27c.2-.4.5-.7.8-.9s.7-.4 1.2-.4c.4 0 .7.1 1 .3s.6.4.7.6v-.7h1.4v5.3h-1.4v-.7c-.2.3-.4.5-.7.7s-.7.3-1 .3c-.5 0-.8-.1-1.2-.4-.4-.2-.7-.6-.8-.9s-.3-.9-.3-1.4c-.1-.9 0-1.4.3-1.8zm3.6.6c-.1-.3-.3-.4-.6-.6-.2-.1-.5-.2-.7-.2s-.5.1-.7.2-.4.3-.6.6c-.1.3-.2.5-.2.8 0 .4.1.6.2.8.1.3.3.5.6.6.2.1.5.2.7.2.3 0 .5-.1.7-.2s.4-.3.6-.6c.1-.3.2-.6.2-.8s-.1-.5-.2-.8z"/><path d="m153.8 26.9v2.6c0 .2 0 .3.1.4s.2.1.5.1h.7v1.1h-.8c-1.1 0-1.7-.6-1.7-1.7v-2.5h-.7v-1.1h.7v-1.3h1.4v1.3h1.2v1.1z"/><path d="m156.1 25c-.2-.2-.3-.4-.3-.6s.1-.4.3-.6.4-.2.6-.2c.3 0 .5.1.6.2.2.2.3.4.3.6s-.1.4-.3.6-.4.2-.6.2c-.3 0-.5-.1-.6-.2zm1.2.8v5.3h-1.3v-5.3z"/><path d="m159.7 30.9c-.4-.2-.7-.6-.9-.9-.3-.4-.4-.9-.4-1.4 0-.6.1-1 .4-1.4s.6-.7 1-.9.8-.4 1.4-.4.9.1 1.4.4c.4.2.7.6 1 .9.3.4.4.9.4 1.4 0 .6-.1 1-.4 1.4s-.6.7-1 .9-.9.4-1.4.4c-.7-.1-1.2-.2-1.5-.4zm2-1.1c.2-.1.4-.3.6-.6.1-.3.2-.6.2-.8 0-.3-.1-.7-.2-.8-.1-.3-.3-.5-.5-.6s-.5-.2-.7-.2c-.4 0-.7.1-.9.4-.3.3-.4.7-.4 1.2 0 .6.1.9.4 1.2s.6.4.9.4c.1 0 .4 0 .6-.2z"/><path d="m169.3 26.3c.4.4.6.9.6 1.7v3h-1.3v-2.9c0-.5-.1-.7-.3-.9s-.5-.4-.8-.4-.7.1-.8.4c-.2.2-.3.6-.3.9v2.9h-1.4v-5.3h1.3v.7c.2-.2.4-.4.7-.6.3-.1.6-.2.9-.2.4.1 1 .3 1.4.7z"/><path d="m171.1 27c.2-.4.5-.7.8-.9.4-.2.7-.4 1.2-.4.4 0 .7.1 1 .3s.6.4.7.6v-.7h1.4v5.3h-1.4v-.7c-.2.3-.4.5-.7.7s-.7.3-1 .3c-.5 0-.8-.1-1.2-.4-.4-.2-.7-.6-.8-.9-.2-.4-.3-.9-.3-1.4-.1-.9 0-1.4.3-1.8zm3.7.6c-.1-.3-.3-.4-.6-.6-.2-.1-.5-.2-.7-.2s-.5.1-.7.2-.4.3-.6.6c-.1.3-.2.5-.2.8 0 .4.1.6.2.8s.3.5.6.6c.2.1.5.2.7.2.3 0 .5-.1.7-.2s.4-.3.6-.6c.1-.3.2-.6.2-.8s-.2-.5-.2-.8z"/><path d="m178.9 24.1v7.1h-1.3v-7.1z"/></g></svg>